<svg id="visual" viewBox="0 0 900 600" width="900" height="600" xmlns="http://www.w3.org/2000/svg" xmlns:xlink="http://www.w3.org/1999/xlink" version="1.1"><rect x="0" y="0" width="900" height="600" fill="#001220"></rect><path d="M0 374L21.5 385C43 396 86 418 128.8 414.3C171.7 410.7 214.3 381.3 257.2 371.7C300 362 343 372 385.8 384.2C428.7 396.3 471.3 410.7 514.2 420.2C557 429.7 600 434.3 642.8 436.7C685.7 439 728.3 439 771.2 428.5C814 418 857 397 878.5 386.5L900 376L900 601L878.5 601C857 601 814 601 771.2 601C728.3 601 685.7 601 642.8 601C600 601 557 601 514.2 601C471.3 601 428.7 601 385.8 601C343 601 300 601 257.2 601C214.3 601 171.7 601 128.8 601C86 601 43 601 21.5 601L0 601Z" fill="#101f60"></path><path d="M0 395L21.5 395.3C43 395.7 86 396.3 128.8 404.8C171.7 413.3 214.3 429.7 257.2 432.8C300 436 343 426 385.8 426.7C428.7 427.3 471.3 438.7 514.2 449C557 459.3 600 468.7 642.8 470C685.7 471.3 728.3 464.7 771.2 455.5C814 446.3 857 434.7 878.5 428.8L900 423L900 601L878.5 601C857 601 814 601 771.2 601C728.3 601 685.7 601 642.8 601C600 601 557 601 514.2 601C471.3 601 428.7 601 385.8 601C343 601 300 601 257.2 601C214.3 601 171.7 601 128.8 601C86 601 43 601 21.5 601L0 601Z" fill="#1b2b79"></path><path d="M0 471L21.5 472.7C43 474.3 86 477.7 128.8 481.3C171.7 485 214.3 489 257.2 491.8C300 494.7 343 496.3 385.8 491.2C428.7 486 471.3 474 514.2 475.8C557 477.7 600 493.3 642.8 491.2C685.7 489 728.3 469 771.2 467.5C814 466 857 483 878.5 491.5L900 500L900 601L878.5 601C857 601 814 601 771.2 601C728.3 601 685.7 601 642.8 601C600 601 557 601 514.2 601C471.3 601 428.7 601 385.8 601C343 601 300 601 257.2 601C214.3 601 171.7 601 128.8 601C86 601 43 601 21.5 601L0 601Z" fill="#263793"></path><path d="M0 533L21.5 532.7C43 532.3 86 531.7 128.8 531.5C171.7 531.3 214.3 531.7 257.2 529.8C300 528 343 524 385.8 520C428.7 516 471.3 512 514.2 507.8C557 503.7 600 499.3 642.8 501.5C685.7 503.7 728.3 512.3 771.2 512.3C814 512.3 857 503.7 878.5 499.3L900 495L900 601L878.5 601C857 601 814 601 771.2 601C728.3 601 685.7 601 642.8 601C600 601 557 601 514.2 601C471.3 601 428.7 601 385.8 601C343 601 300 601 257.2 601C214.3 601 171.7 601 128.8 601C86 601 43 601 21.5 601L0 601Z" fill="#3144ae"></path><path d="M0 550L21.5 547.3C43 544.7 86 539.3 128.8 535.8C171.7 532.3 214.3 530.7 257.2 533.5C300 536.3 343 543.7 385.8 550C428.7 556.3 471.3 561.7 514.2 557.7C557 553.7 600 540.3 642.8 541.3C685.7 542.3 728.3 557.7 771.2 558.3C814 559 857 545 878.5 538L900 531L900 601L878.5 601C857 601 814 601 771.2 601C728.3 601 685.7 601 642.8 601C600 601 557 601 514.2 601C471.3 601 428.7 601 385.8 601C343 601 300 601 257.2 601C214.3 601 171.7 601 128.8 601C86 601 43 601 21.5 601L0 601Z" fill="#3c52ca"></path></svg>